<svg xmlns="http://www.w3.org/2000/svg" width="428" height="370" viewBox="0 0 428 370"><rect width="428" height="370" fill="#f9f7f1"/><text x="24" y="34" font-family="monospace" font-size="18" font-weight="bold" fill="#1a1a1a">LAST-MINUTE PRICING — new state icon: SEATS + DEPARTURE BOARD</text><text x="24" y="54" font-family="monospace" font-size="12" fill="#6b6256">empty seat = stock · board tiles = days to departure · ✈ = GATE CLOSED ($0)</text><g transform="translate(24,70)"><rect x="0" y="0" width="170" height="120" rx="2" fill="#ffffff" stroke="#1a1a1a" stroke-width="3"/><rect x="4" y="4" width="170" height="120" fill="#1a1a1a" opacity="0.0"/><svg x="12" y="12" width="48" height="16" viewBox="0 0 48 18" preserveAspectRatio="none"><rect x="9" y="1"  width="13" height="4"  fill="#F0C24A" stroke="#181818" stroke-width="2"/><rect x="11" y="3" width="10" height="12" fill="#F0C24A" stroke="#181818" stroke-width="2"/><rect x="11" y="11" width="26" height="5" fill="#F0C24A" stroke="#181818" stroke-width="2"/></svg><svg x="12" y="32" width="48" height="16" viewBox="0 0 48 18" preserveAspectRatio="none"><rect x="9" y="1"  width="13" height="4"  fill="#F0C24A" stroke="#181818" stroke-width="2"/><rect x="11" y="3" width="10" height="12" fill="#F0C24A" stroke="#181818" stroke-width="2"/><rect x="11" y="11" width="26" height="5" fill="#F0C24A" stroke="#181818" stroke-width="2"/></svg><svg x="12" y="52" width="48" height="16" viewBox="0 0 48 18" preserveAspectRatio="none"><rect x="9" y="1"  width="13" height="4"  fill="#F0C24A" stroke="#181818" stroke-width="2"/><rect x="11" y="3" width="10" height="12" fill="#F0C24A" stroke="#181818" stroke-width="2"/><rect x="11" y="11" width="26" height="5" fill="#F0C24A" stroke="#181818" stroke-width="2"/></svg><svg x="12" y="72" width="48" height="16" viewBox="0 0 48 18" preserveAspectRatio="none"><rect x="9" y="1"  width="13" height="4"  fill="#F0C24A" stroke="#181818" stroke-width="2"/><rect x="11" y="3" width="10" height="12" fill="#F0C24A" stroke="#181818" stroke-width="2"/><rect x="11" y="11" width="26" height="5" fill="#F0C24A" stroke="#181818" stroke-width="2"/></svg><svg x="12" y="92" width="48" height="16" viewBox="0 0 48 18" preserveAspectRatio="none"><rect x="9" y="1"  width="13" height="4"  fill="#F0C24A" stroke="#181818" stroke-width="2"/><rect x="11" y="3" width="10" height="12" fill="#F0C24A" stroke="#181818" stroke-width="2"/><rect x="11" y="11" width="26" height="5" fill="#F0C24A" stroke="#181818" stroke-width="2"/></svg><rect x="56" y="18" width="18" height="22" fill="#1B2330" stroke="#1a1a1a" stroke-width="2"/><line x1="56" y1="29" x2="74" y2="29" stroke="#000" stroke-opacity="0.42" stroke-width="2"/><text x="65" y="32" font-family="monospace" font-size="9" font-weight="bold" text-anchor="middle" fill="#F0C24A">1</text><rect x="77" y="18" width="18" height="22" fill="#1B2330" stroke="#1a1a1a" stroke-width="2"/><line x1="77" y1="29" x2="95" y2="29" stroke="#000" stroke-opacity="0.42" stroke-width="2"/><text x="86" y="32" font-family="monospace" font-size="9" font-weight="bold" text-anchor="middle" fill="#F0C24A">2</text><rect x="98" y="18" width="18" height="22" fill="#1B2330" stroke="#1a1a1a" stroke-width="2"/><line x1="98" y1="29" x2="116" y2="29" stroke="#000" stroke-opacity="0.42" stroke-width="2"/><text x="107" y="32" font-family="monospace" font-size="9" font-weight="bold" text-anchor="middle" fill="#F0C24A">3</text><rect x="119" y="18" width="18" height="22" fill="#1B2330" stroke="#1a1a1a" stroke-width="2"/><line x1="119" y1="29" x2="137" y2="29" stroke="#000" stroke-opacity="0.42" stroke-width="2"/><text x="128" y="32" font-family="monospace" font-size="9" font-weight="bold" text-anchor="middle" fill="#F0C24A">4</text><rect x="140" y="18" width="18" height="22" fill="#11161F" stroke="#1a1a1a" stroke-width="2"/><svg x="142" y="22" width="14" height="14" viewBox="0 0 16 16"><path d="M8 1 L9 6 L15 9.5 L9 10 L9 13 L11 15 L8 14 L5 15 L7 13 L7 10 L1 9.5 L7 6 Z" fill="#E6B23A"/></svg><text x="85" y="110" font-family="monospace" font-size="10" font-weight="bold" text-anchor="middle" fill="#6b6256">FULL CABIN · 4 DAYS</text></g><g transform="translate(214,70)"><rect x="0" y="0" width="170" height="120" rx="2" fill="#ffffff" stroke="#1a1a1a" stroke-width="3"/><rect x="4" y="4" width="170" height="120" fill="#1a1a1a" opacity="0.0"/><svg x="12" y="12" width="48" height="16" viewBox="0 0 48 18" preserveAspectRatio="none"><rect x="9" y="1"  width="13" height="4"  fill="#B8B0A0" stroke="#6E665A" stroke-width="2"/><rect x="11" y="3" width="10" height="12" fill="#B8B0A0" stroke="#6E665A" stroke-width="2"/><rect x="11" y="11" width="26" height="5" fill="#B8B0A0" stroke="#6E665A" stroke-width="2"/></svg><svg x="12" y="32" width="48" height="16" viewBox="0 0 48 18" preserveAspectRatio="none"><rect x="9" y="1"  width="13" height="4"  fill="#B8B0A0" stroke="#6E665A" stroke-width="2"/><rect x="11" y="3" width="10" height="12" fill="#B8B0A0" stroke="#6E665A" stroke-width="2"/><rect x="11" y="11" width="26" height="5" fill="#B8B0A0" stroke="#6E665A" stroke-width="2"/></svg><svg x="12" y="52" width="48" height="16" viewBox="0 0 48 18" preserveAspectRatio="none"><rect x="9" y="1"  width="13" height="4"  fill="#F0C24A" stroke="#181818" stroke-width="2"/><rect x="11" y="3" width="10" height="12" fill="#F0C24A" stroke="#181818" stroke-width="2"/><rect x="11" y="11" width="26" height="5" fill="#F0C24A" stroke="#181818" stroke-width="2"/></svg><svg x="12" y="72" width="48" height="16" viewBox="0 0 48 18" preserveAspectRatio="none"><rect x="9" y="1"  width="13" height="4"  fill="#F0C24A" stroke="#181818" stroke-width="2"/><rect x="11" y="3" width="10" height="12" fill="#F0C24A" stroke="#181818" stroke-width="2"/><rect x="11" y="11" width="26" height="5" fill="#F0C24A" stroke="#181818" stroke-width="2"/></svg><svg x="12" y="92" width="48" height="16" viewBox="0 0 48 18" preserveAspectRatio="none"><rect x="9" y="1"  width="13" height="4"  fill="#F0C24A" stroke="#181818" stroke-width="2"/><rect x="11" y="3" width="10" height="12" fill="#F0C24A" stroke="#181818" stroke-width="2"/><rect x="11" y="11" width="26" height="5" fill="#F0C24A" stroke="#181818" stroke-width="2"/></svg><rect x="56" y="18" width="18" height="22" fill="#141A24" stroke="#1a1a1a" stroke-width="2"/><line x1="56" y1="29" x2="74" y2="29" stroke="#000" stroke-opacity="0.42" stroke-width="2"/><text x="65" y="32" font-family="monospace" font-size="9" font-weight="bold" text-anchor="middle" fill="#5A6172">1</text><rect x="77" y="18" width="18" height="22" fill="#141A24" stroke="#1a1a1a" stroke-width="2"/><line x1="77" y1="29" x2="95" y2="29" stroke="#000" stroke-opacity="0.42" stroke-width="2"/><text x="86" y="32" font-family="monospace" font-size="9" font-weight="bold" text-anchor="middle" fill="#5A6172">2</text><rect x="98" y="18" width="18" height="22" fill="#1B2330" stroke="#1a1a1a" stroke-width="2"/><line x1="98" y1="29" x2="116" y2="29" stroke="#000" stroke-opacity="0.42" stroke-width="2"/><text x="107" y="32" font-family="monospace" font-size="9" font-weight="bold" text-anchor="middle" fill="#F0C24A">3</text><rect x="119" y="18" width="18" height="22" fill="#1B2330" stroke="#1a1a1a" stroke-width="2"/><line x1="119" y1="29" x2="137" y2="29" stroke="#000" stroke-opacity="0.42" stroke-width="2"/><text x="128" y="32" font-family="monospace" font-size="9" font-weight="bold" text-anchor="middle" fill="#F0C24A">4</text><rect x="140" y="18" width="18" height="22" fill="#11161F" stroke="#1a1a1a" stroke-width="2"/><svg x="142" y="22" width="14" height="14" viewBox="0 0 16 16"><path d="M8 1 L9 6 L15 9.5 L9 10 L9 13 L11 15 L8 14 L5 15 L7 13 L7 10 L1 9.5 L7 6 Z" fill="#E6B23A"/></svg><text x="85" y="110" font-family="monospace" font-size="10" font-weight="bold" text-anchor="middle" fill="#6b6256">SELLING DOWN · 2 DAYS</text></g><g transform="translate(24,210)"><rect x="0" y="0" width="170" height="120" rx="2" fill="#ffffff" stroke="#1a1a1a" stroke-width="3"/><rect x="4" y="4" width="170" height="120" fill="#1a1a1a" opacity="0.0"/><svg x="12" y="12" width="48" height="16" viewBox="0 0 48 18" preserveAspectRatio="none"><rect x="9" y="1"  width="13" height="4"  fill="#B8B0A0" stroke="#6E665A" stroke-width="2"/><rect x="11" y="3" width="10" height="12" fill="#B8B0A0" stroke="#6E665A" stroke-width="2"/><rect x="11" y="11" width="26" height="5" fill="#B8B0A0" stroke="#6E665A" stroke-width="2"/></svg><svg x="12" y="32" width="48" height="16" viewBox="0 0 48 18" preserveAspectRatio="none"><rect x="9" y="1"  width="13" height="4"  fill="#B8B0A0" stroke="#6E665A" stroke-width="2"/><rect x="11" y="3" width="10" height="12" fill="#B8B0A0" stroke="#6E665A" stroke-width="2"/><rect x="11" y="11" width="26" height="5" fill="#B8B0A0" stroke="#6E665A" stroke-width="2"/></svg><svg x="12" y="52" width="48" height="16" viewBox="0 0 48 18" preserveAspectRatio="none"><rect x="9" y="1"  width="13" height="4"  fill="#B8B0A0" stroke="#6E665A" stroke-width="2"/><rect x="11" y="3" width="10" height="12" fill="#B8B0A0" stroke="#6E665A" stroke-width="2"/><rect x="11" y="11" width="26" height="5" fill="#B8B0A0" stroke="#6E665A" stroke-width="2"/></svg><svg x="12" y="72" width="48" height="16" viewBox="0 0 48 18" preserveAspectRatio="none"><rect x="9" y="1"  width="13" height="4"  fill="#F0C24A" stroke="#181818" stroke-width="2"/><rect x="11" y="3" width="10" height="12" fill="#F0C24A" stroke="#181818" stroke-width="2"/><rect x="11" y="11" width="26" height="5" fill="#F0C24A" stroke="#181818" stroke-width="2"/></svg><svg x="12" y="92" width="48" height="16" viewBox="0 0 48 18" preserveAspectRatio="none"><rect x="9" y="1"  width="13" height="4"  fill="#F0C24A" stroke="#181818" stroke-width="2"/><rect x="11" y="3" width="10" height="12" fill="#F0C24A" stroke="#181818" stroke-width="2"/><rect x="11" y="11" width="26" height="5" fill="#F0C24A" stroke="#181818" stroke-width="2"/></svg><rect x="56" y="18" width="18" height="22" fill="#141A24" stroke="#1a1a1a" stroke-width="2"/><line x1="56" y1="29" x2="74" y2="29" stroke="#000" stroke-opacity="0.42" stroke-width="2"/><text x="65" y="32" font-family="monospace" font-size="9" font-weight="bold" text-anchor="middle" fill="#5A6172">1</text><rect x="77" y="18" width="18" height="22" fill="#141A24" stroke="#1a1a1a" stroke-width="2"/><line x1="77" y1="29" x2="95" y2="29" stroke="#000" stroke-opacity="0.42" stroke-width="2"/><text x="86" y="32" font-family="monospace" font-size="9" font-weight="bold" text-anchor="middle" fill="#5A6172">2</text><rect x="98" y="18" width="18" height="22" fill="#141A24" stroke="#1a1a1a" stroke-width="2"/><line x1="98" y1="29" x2="116" y2="29" stroke="#000" stroke-opacity="0.42" stroke-width="2"/><text x="107" y="32" font-family="monospace" font-size="9" font-weight="bold" text-anchor="middle" fill="#5A6172">3</text><rect x="119" y="18" width="18" height="22" fill="#141A24" stroke="#1a1a1a" stroke-width="2"/><line x1="119" y1="29" x2="137" y2="29" stroke="#000" stroke-opacity="0.42" stroke-width="2"/><text x="128" y="32" font-family="monospace" font-size="9" font-weight="bold" text-anchor="middle" fill="#5A6172">4</text><rect x="140" y="18" width="18" height="22" fill="#11161F" stroke="#B8323A" stroke-width="3"/><svg x="142" y="22" width="14" height="14" viewBox="0 0 16 16"><path d="M8 1 L9 6 L15 9.5 L9 10 L9 13 L11 15 L8 14 L5 15 L7 13 L7 10 L1 9.5 L7 6 Z" fill="#E6B23A"/></svg><text x="85" y="110" font-family="monospace" font-size="10" font-weight="bold" text-anchor="middle" fill="#1a1a1a">GATE CLOSED · 2 FLEW EMPTY</text></g><g transform="translate(214,210)"><rect x="0" y="0" width="170" height="120" rx="2" fill="#ffffff" stroke="#1a1a1a" stroke-width="3"/><rect x="4" y="4" width="170" height="120" fill="#1a1a1a" opacity="0.0"/><svg x="12" y="12" width="48" height="16" viewBox="0 0 48 18" preserveAspectRatio="none"><rect x="9" y="1"  width="13" height="4"  fill="#B8B0A0" stroke="#6E665A" stroke-width="2"/><rect x="11" y="3" width="10" height="12" fill="#B8B0A0" stroke="#6E665A" stroke-width="2"/><rect x="11" y="11" width="26" height="5" fill="#B8B0A0" stroke="#6E665A" stroke-width="2"/></svg><svg x="12" y="32" width="48" height="16" viewBox="0 0 48 18" preserveAspectRatio="none"><rect x="9" y="1"  width="13" height="4"  fill="#B8B0A0" stroke="#6E665A" stroke-width="2"/><rect x="11" y="3" width="10" height="12" fill="#B8B0A0" stroke="#6E665A" stroke-width="2"/><rect x="11" y="11" width="26" height="5" fill="#B8B0A0" stroke="#6E665A" stroke-width="2"/></svg><svg x="12" y="52" width="48" height="16" viewBox="0 0 48 18" preserveAspectRatio="none"><rect x="9" y="1"  width="13" height="4"  fill="#B8B0A0" stroke="#6E665A" stroke-width="2"/><rect x="11" y="3" width="10" height="12" fill="#B8B0A0" stroke="#6E665A" stroke-width="2"/><rect x="11" y="11" width="26" height="5" fill="#B8B0A0" stroke="#6E665A" stroke-width="2"/></svg><svg x="12" y="72" width="48" height="16" viewBox="0 0 48 18" preserveAspectRatio="none"><rect x="9" y="1"  width="13" height="4"  fill="#B8B0A0" stroke="#6E665A" stroke-width="2"/><rect x="11" y="3" width="10" height="12" fill="#B8B0A0" stroke="#6E665A" stroke-width="2"/><rect x="11" y="11" width="26" height="5" fill="#B8B0A0" stroke="#6E665A" stroke-width="2"/></svg><svg x="12" y="92" width="48" height="16" viewBox="0 0 48 18" preserveAspectRatio="none"><rect x="9" y="1"  width="13" height="4"  fill="#B8B0A0" stroke="#6E665A" stroke-width="2"/><rect x="11" y="3" width="10" height="12" fill="#B8B0A0" stroke="#6E665A" stroke-width="2"/><rect x="11" y="11" width="26" height="5" fill="#B8B0A0" stroke="#6E665A" stroke-width="2"/></svg><rect x="56" y="18" width="18" height="22" fill="#141A24" stroke="#1a1a1a" stroke-width="2"/><line x1="56" y1="29" x2="74" y2="29" stroke="#000" stroke-opacity="0.42" stroke-width="2"/><text x="65" y="32" font-family="monospace" font-size="9" font-weight="bold" text-anchor="middle" fill="#5A6172">1</text><rect x="77" y="18" width="18" height="22" fill="#141A24" stroke="#1a1a1a" stroke-width="2"/><line x1="77" y1="29" x2="95" y2="29" stroke="#000" stroke-opacity="0.42" stroke-width="2"/><text x="86" y="32" font-family="monospace" font-size="9" font-weight="bold" text-anchor="middle" fill="#5A6172">2</text><rect x="98" y="18" width="18" height="22" fill="#141A24" stroke="#1a1a1a" stroke-width="2"/><line x1="98" y1="29" x2="116" y2="29" stroke="#000" stroke-opacity="0.42" stroke-width="2"/><text x="107" y="32" font-family="monospace" font-size="9" font-weight="bold" text-anchor="middle" fill="#5A6172">3</text><rect x="119" y="18" width="18" height="22" fill="#141A24" stroke="#1a1a1a" stroke-width="2"/><line x1="119" y1="29" x2="137" y2="29" stroke="#000" stroke-opacity="0.42" stroke-width="2"/><text x="128" y="32" font-family="monospace" font-size="9" font-weight="bold" text-anchor="middle" fill="#5A6172">4</text><rect x="140" y="18" width="18" height="22" fill="#11161F" stroke="#1a1a1a" stroke-width="2"/><svg x="142" y="22" width="14" height="14" viewBox="0 0 16 16"><path d="M8 1 L9 6 L15 9.5 L9 10 L9 13 L11 15 L8 14 L5 15 L7 13 L7 10 L1 9.5 L7 6 Z" fill="#E6B23A"/></svg><text x="85" y="110" font-family="monospace" font-size="10" font-weight="bold" text-anchor="middle" fill="#1a1a1a">FULL FLIGHT · SOLD OUT</text></g></svg>