<svg xmlns="http://www.w3.org/2000/svg" viewBox="0 0 120 84">
<g>
<rect x="2" y="46" width="8" height="4" fill="#585858" stroke="#181818" stroke-width="1.4"/>
<rect x="8" y="12" width="66" height="34" fill="#E07A2A" stroke="#181818" stroke-width="2.5"/>
<rect x="8" y="12" width="66" height="4" fill="#181818" opacity="0.18"/>
<rect x="74" y="22" width="28" height="24" fill="#E07A2A" stroke="#181818" stroke-width="2.5"/>
<rect x="78" y="26" width="13" height="11" fill="#B6D9EB" stroke="#181818" stroke-width="1.6"/>
<rect x="98" y="34" width="5" height="5" fill="#E08A00" stroke="#181818" stroke-width="1.4"/>
<rect x="100" y="42" width="8" height="5" fill="#585858" stroke="#181818" stroke-width="1.4"/>
<polyline points="14,42 24,40 30,43" fill="none" stroke="#181818" stroke-width="1.6"/>
<path d="M58 44 l5 -4 l4 4" fill="none" stroke="#181818" stroke-width="1.6"/>
<rect x="62" y="40" width="9" height="6" fill="#E08A00" stroke="#181818" opacity="0.75"/>
<g><circle cx="26" cy="50" r="9" fill="#181818"/><circle cx="26" cy="50" r="3.5" fill="#F8F4E4"/></g>
<g><circle cx="88" cy="50" r="9" fill="#181818"/><circle cx="88" cy="50" r="3.5" fill="#F8F4E4"/></g>
<line x1="2" y1="60" x2="118" y2="60" stroke="#181818" stroke-width="2"/>
</g>
<rect x="10" y="70" width="23" height="9" rx="1.5" fill="#E07A2A" stroke="#181818" stroke-width="0.8"/>
<rect x="37" y="70" width="23" height="9" rx="1.5" fill="#E07A2A" stroke="#181818" stroke-width="0.8"/>
<rect x="64" y="70" width="23" height="9" rx="1.5" fill="#cfc9b8" stroke="#181818" stroke-width="0.8"/>
<rect x="91" y="70" width="23" height="9" rx="1.5" fill="#cfc9b8" stroke="#181818" stroke-width="0.8"/>
</svg>